<?xml version="1.0" encoding="UTF-8"?>
<svg id="_レイヤー_1" xmlns="http://www.w3.org/2000/svg" version="1.1" viewBox="0 0 170.7 141.3">
  <!-- Generator: Adobe Illustrator 29.3.0, SVG Export Plug-In . SVG Version: 2.1.0 Build 146)  -->
  <defs>
    <style>
      .st0 {
        stroke-width: 5px;
      }

      .st0, .st1 {
        fill: none;
        stroke: #333;
        stroke-linecap: round;
        stroke-linejoin: round;
      }

      .st1 {
        stroke-width: 5px;
      }
    </style>
  </defs>
  <path class="st1" d="M98,115.2v17.2H2.5V2.5h95.5v13.1"/>
  <path class="st1" d="M129.5,94c-5.5,4.6-12,7.4-18.6,8.4-4,.6-8,.6-12,0-8.5-1.4-16.6-5.8-22.6-12.9-2.2-2.6-4-5.4-5.3-8.3-3.2-6.9-4.2-14.6-3-22,1.3-8.2,5.4-16,12-22,.3-.3.7-.6,1-.9,5.3-4.5,11.5-7.2,17.9-8.3,4-.7,8-.7,12-.1,8.8,1.3,17.1,5.7,23.3,13,13.4,16,11.3,39.8-4.7,53.2h0Z"/>
  <polyline class="st1" points="53.6 64.6 17.4 64.6 17.4 18.8 75.7 18.8"/>
  <line class="st1" x1="17.4" y1="81.4" x2="53.6" y2="81.4"/>
  <line class="st1" x1="17.4" y1="96.8" x2="64.1" y2="96.8"/>
  <line class="st1" x1="17.4" y1="112.7" x2="83.2" y2="112.7"/>
  <circle class="st0" cx="105.2" cy="65.1" r="26.1"/>
  <path class="st1" d="M165.7,137.1h0c-3,2.5-7.5,2.1-10-.9l-22.5-26.8,10.9-9.1,22.5,26.8c2.5,3,2.1,7.5-.9,10h0Z"/>
  <line class="st1" x1="129.5" y1="94" x2="138.3" y2="104.5"/>
</svg>